<svg xmlns="http://www.w3.org/2000/svg" xmlns:xlink="http://www.w3.org/1999/xlink" width="300" zoomAndPan="magnify" viewBox="0 0 224.87999 44.999999" height="60" preserveAspectRatio="xMidYMid meet" version="1.0"><defs><filter x="0%" y="0%" width="100%" height="100%" id="a7ca30ae28"><feColorMatrix values="0 0 0 0 1 0 0 0 0 1 0 0 0 0 1 0 0 0 1 0" color-interpolation-filters="sRGB"/></filter><g/><mask id="2d5f8a35b3"><g filter="url(#a7ca30ae28)"><rect x="-22.487999" width="269.855988" fill="#000000" y="-4.5" height="53.999999" fill-opacity="0.89"/></g></mask><clipPath id="0c1e5cddac"><rect x="0" width="153" y="0" height="38"/></clipPath></defs><g mask="url(#2d5f8a35b3)"><g transform="matrix(1, 0, 0, 1, 36, 3)"><g clip-path="url(#0c1e5cddac)"><g fill="#ffffff" fill-opacity="1"><g transform="translate(0.79778, 27.745598)"><g><path d="M 1.96875 -2.25 L 1.96875 -6.140625 L 5.21875 -7.296875 L 7.546875 -8.171875 L 5.21875 -9.046875 L 1.96875 -10.1875 L 1.96875 -14.09375 L 12.859375 -9.71875 L 12.859375 -6.640625 Z M 1.96875 -2.25 "/></g></g></g><g fill="#ffffff" fill-opacity="1"><g transform="translate(13.513642, 27.745598)"><g/></g></g><g fill="#ffffff" fill-opacity="1"><g transform="translate(17.260715, 27.745598)"><g><path d="M 2.09375 0 L 2.09375 -17.484375 L 5.46875 -17.484375 L 13.1875 -6.84375 L 13.1875 -17.484375 L 17.140625 -17.484375 L 17.140625 0 L 13.765625 0 L 6.046875 -10.71875 L 6.046875 0 Z M 2.09375 0 "/></g></g></g><g fill="#ffffff" fill-opacity="1"><g transform="translate(34.373534, 27.745598)"><g><path d="M 10.125 0.34375 C 8.351562 0.34375 6.785156 -0.0390625 5.421875 -0.8125 C 4.054688 -1.582031 2.988281 -2.648438 2.21875 -4.015625 C 1.457031 -5.390625 1.078125 -6.96875 1.078125 -8.75 C 1.078125 -10.53125 1.457031 -12.101562 2.21875 -13.46875 C 2.988281 -14.832031 4.050781 -15.898438 5.40625 -16.671875 C 6.769531 -17.453125 8.332031 -17.84375 10.09375 -17.84375 C 11.570312 -17.84375 12.925781 -17.554688 14.15625 -16.984375 C 15.394531 -16.421875 16.429688 -15.625 17.265625 -14.59375 C 18.109375 -13.5625 18.695312 -12.34375 19.03125 -10.9375 L 14.9375 -10.9375 C 14.601562 -11.90625 14.007812 -12.664062 13.15625 -13.21875 C 12.3125 -13.78125 11.332031 -14.0625 10.21875 -14.0625 C 9.238281 -14.0625 8.359375 -13.835938 7.578125 -13.390625 C 6.804688 -12.941406 6.203125 -12.316406 5.765625 -11.515625 C 5.335938 -10.710938 5.125 -9.789062 5.125 -8.75 C 5.125 -7.695312 5.335938 -6.769531 5.765625 -5.96875 C 6.203125 -5.164062 6.800781 -4.539062 7.5625 -4.09375 C 8.332031 -3.644531 9.207031 -3.421875 10.1875 -3.421875 C 11.34375 -3.421875 12.351562 -3.71875 13.21875 -4.3125 C 14.082031 -4.90625 14.695312 -5.703125 15.0625 -6.703125 L 19.15625 -6.703125 C 18.875 -5.285156 18.304688 -4.046875 17.453125 -2.984375 C 16.609375 -1.929688 15.554688 -1.113281 14.296875 -0.53125 C 13.046875 0.0507812 11.65625 0.34375 10.125 0.34375 Z M 10.125 0.34375 "/></g></g></g><g fill="#ffffff" fill-opacity="1"><g transform="translate(52.410713, 27.745598)"><g><path d="M 2.09375 0 L 2.09375 -17.484375 L 9.5625 -17.484375 C 10.894531 -17.484375 12.050781 -17.242188 13.03125 -16.765625 C 14.019531 -16.285156 14.78125 -15.59375 15.3125 -14.6875 C 15.84375 -13.789062 16.109375 -12.71875 16.109375 -11.46875 C 16.109375 -10.1875 15.816406 -9.082031 15.234375 -8.15625 C 14.648438 -7.226562 13.835938 -6.535156 12.796875 -6.078125 L 16.421875 0 L 11.8125 0 L 8.6875 -5.453125 L 6.078125 -5.453125 L 6.078125 0 Z M 6.015625 -8.796875 L 9.046875 -8.796875 C 10.023438 -8.796875 10.773438 -9.023438 11.296875 -9.484375 C 11.828125 -9.941406 12.09375 -10.59375 12.09375 -11.4375 C 12.09375 -12.289062 11.828125 -12.945312 11.296875 -13.40625 C 10.773438 -13.863281 10.023438 -14.09375 9.046875 -14.09375 L 6.015625 -14.09375 Z M 6.015625 -8.796875 "/></g></g></g><g fill="#ffffff" fill-opacity="1"><g transform="translate(67.874677, 27.745598)"><g><path d="M 6.671875 0 L 6.671875 -6.125 L 0.21875 -17.484375 L 4.75 -17.484375 L 6.921875 -13.4375 L 8.671875 -10.265625 L 10.390625 -13.4375 L 12.546875 -17.484375 L 17.0625 -17.484375 L 10.640625 -6.171875 L 10.640625 0 Z M 6.671875 0 "/></g></g></g><g fill="#ffffff" fill-opacity="1"><g transform="translate(83.038852, 27.745598)"><g><path d="M 2.09375 0 L 2.09375 -17.484375 L 8.9375 -17.484375 C 10.351562 -17.484375 11.578125 -17.222656 12.609375 -16.703125 C 13.648438 -16.191406 14.457031 -15.460938 15.03125 -14.515625 C 15.601562 -13.566406 15.890625 -12.453125 15.890625 -11.171875 C 15.890625 -9.898438 15.601562 -8.789062 15.03125 -7.84375 C 14.457031 -6.894531 13.648438 -6.160156 12.609375 -5.640625 C 11.578125 -5.128906 10.351562 -4.875 8.9375 -4.875 L 6.078125 -4.875 L 6.078125 0 Z M 6.046875 -8.296875 L 8.625 -8.296875 C 9.65625 -8.296875 10.445312 -8.539062 11 -9.03125 C 11.5625 -9.519531 11.84375 -10.222656 11.84375 -11.140625 C 11.84375 -12.054688 11.5625 -12.765625 11 -13.265625 C 10.445312 -13.765625 9.65625 -14.015625 8.625 -14.015625 L 6.046875 -14.015625 Z M 6.046875 -8.296875 "/></g></g></g><g fill="#ffffff" fill-opacity="1"><g transform="translate(97.528495, 27.745598)"><g><path d="M 6.296875 0 L 6.296875 -13.765625 L 0.75 -13.765625 L 0.75 -17.484375 L 15.8125 -17.484375 L 15.8125 -13.765625 L 10.265625 -13.765625 L 10.265625 0 Z M 6.296875 0 "/></g></g></g><g fill="#ffffff" fill-opacity="1"><g transform="translate(111.968164, 27.745598)"><g><path d="M 2.09375 0 L 2.09375 -17.484375 L 6.078125 -17.484375 L 6.078125 0 Z M 2.09375 0 "/></g></g></g><g fill="#ffffff" fill-opacity="1"><g transform="translate(118.013644, 27.745598)"><g><path d="M 10.125 0.34375 C 8.351562 0.34375 6.785156 -0.0390625 5.421875 -0.8125 C 4.054688 -1.582031 2.988281 -2.648438 2.21875 -4.015625 C 1.457031 -5.390625 1.078125 -6.96875 1.078125 -8.75 C 1.078125 -10.53125 1.457031 -12.101562 2.21875 -13.46875 C 2.988281 -14.832031 4.050781 -15.898438 5.40625 -16.671875 C 6.769531 -17.453125 8.332031 -17.84375 10.09375 -17.84375 C 11.570312 -17.84375 12.925781 -17.554688 14.15625 -16.984375 C 15.394531 -16.421875 16.429688 -15.625 17.265625 -14.59375 C 18.109375 -13.5625 18.695312 -12.34375 19.03125 -10.9375 L 14.9375 -10.9375 C 14.601562 -11.90625 14.007812 -12.664062 13.15625 -13.21875 C 12.3125 -13.78125 11.332031 -14.0625 10.21875 -14.0625 C 9.238281 -14.0625 8.359375 -13.835938 7.578125 -13.390625 C 6.804688 -12.941406 6.203125 -12.316406 5.765625 -11.515625 C 5.335938 -10.710938 5.125 -9.789062 5.125 -8.75 C 5.125 -7.695312 5.335938 -6.769531 5.765625 -5.96875 C 6.203125 -5.164062 6.800781 -4.539062 7.5625 -4.09375 C 8.332031 -3.644531 9.207031 -3.421875 10.1875 -3.421875 C 11.34375 -3.421875 12.351562 -3.71875 13.21875 -4.3125 C 14.082031 -4.90625 14.695312 -5.703125 15.0625 -6.703125 L 19.15625 -6.703125 C 18.875 -5.285156 18.304688 -4.046875 17.453125 -2.984375 C 16.609375 -1.929688 15.554688 -1.113281 14.296875 -0.53125 C 13.046875 0.0507812 11.65625 0.34375 10.125 0.34375 Z M 10.125 0.34375 "/></g></g></g><g fill="#ffffff" fill-opacity="1"><g transform="translate(136.050823, 27.745598)"><g><path d="M 8.1875 0.34375 C 6.726562 0.34375 5.46875 0.101562 4.40625 -0.375 C 3.351562 -0.851562 2.535156 -1.535156 1.953125 -2.421875 C 1.378906 -3.316406 1.09375 -4.367188 1.09375 -5.578125 L 5 -5.578125 C 5 -4.742188 5.285156 -4.09375 5.859375 -3.625 C 6.429688 -3.15625 7.203125 -2.921875 8.171875 -2.921875 C 9.003906 -2.921875 9.660156 -3.082031 10.140625 -3.40625 C 10.628906 -3.726562 10.875 -4.179688 10.875 -4.765625 C 10.875 -5.390625 10.582031 -5.890625 10 -6.265625 C 9.414062 -6.648438 8.503906 -6.976562 7.265625 -7.25 C 5.222656 -7.675781 3.707031 -8.332031 2.71875 -9.21875 C 1.738281 -10.101562 1.25 -11.253906 1.25 -12.671875 C 1.25 -14.265625 1.832031 -15.523438 3 -16.453125 C 4.164062 -17.378906 5.753906 -17.84375 7.765625 -17.84375 C 9.148438 -17.84375 10.347656 -17.601562 11.359375 -17.125 C 12.378906 -16.65625 13.164062 -15.988281 13.71875 -15.125 C 14.28125 -14.269531 14.5625 -13.25 14.5625 -12.0625 L 10.75 -12.0625 C 10.75 -12.84375 10.488281 -13.457031 9.96875 -13.90625 C 9.445312 -14.363281 8.726562 -14.59375 7.8125 -14.59375 C 6.988281 -14.59375 6.332031 -14.425781 5.84375 -14.09375 C 5.363281 -13.769531 5.125 -13.316406 5.125 -12.734375 C 5.125 -12.203125 5.390625 -11.753906 5.921875 -11.390625 C 6.453125 -11.023438 7.382812 -10.6875 8.71875 -10.375 C 10.90625 -9.851562 12.476562 -9.160156 13.4375 -8.296875 C 14.40625 -7.429688 14.890625 -6.304688 14.890625 -4.921875 C 14.890625 -3.273438 14.289062 -1.984375 13.09375 -1.046875 C 11.90625 -0.117188 10.269531 0.34375 8.1875 0.34375 Z M 8.1875 0.34375 "/></g></g></g></g></g></g></svg>