<svg xmlns="http://www.w3.org/2000/svg" xmlns:xlink="http://www.w3.org/1999/xlink" width="1200" zoomAndPan="magnify" viewBox="0 0 900 675.000002" height="900" preserveAspectRatio="xMidYMid meet" version="1.0"><defs><g/><clipPath id="841f0f9dea"><path d="M 6 136 L 712 136 L 712 182.585938 L 6 182.585938 Z M 6 136 " clip-rule="nonzero"/></clipPath><clipPath id="23435e44a0"><rect x="0" width="706" y="0" height="47"/></clipPath><clipPath id="4c10ce48ac"><rect x="0" width="716" y="0" height="183"/></clipPath></defs><g transform="matrix(1, 0, 0, 1, 91, 232)"><g clip-path="url(#4c10ce48ac)"><g fill="#ffffff" fill-opacity="1"><g transform="translate(2.399903, 111.778935)"><g><path d="M 8.375 -9.546875 L 8.375 -26.09375 L 22.171875 -30.96875 L 32.03125 -34.6875 L 22.171875 -38.40625 L 8.375 -43.28125 L 8.375 -59.828125 L 54.625 -41.265625 L 54.625 -28.21875 Z M 8.375 -9.546875 "/></g></g></g><g fill="#ffffff" fill-opacity="1"><g transform="translate(63.483722, 111.778935)"><g/></g></g><g fill="#ffffff" fill-opacity="1"><g transform="translate(86.49581, 111.778935)"><g><path d="M 8.90625 0 L 8.90625 -74.25 L 23.234375 -74.25 L 56.015625 -29.0625 L 56.015625 -74.25 L 72.765625 -74.25 L 72.765625 0 L 58.453125 0 L 25.671875 -45.5 L 25.671875 0 Z M 8.90625 0 "/></g></g></g><g fill="#ffffff" fill-opacity="1"><g transform="translate(166.244337, 111.778935)"><g><path d="M 42.96875 1.484375 C 35.46875 1.484375 28.816406 -0.15625 23.015625 -3.4375 C 17.222656 -6.726562 12.695312 -11.273438 9.4375 -17.078125 C 6.1875 -22.878906 4.5625 -29.5625 4.5625 -37.125 C 4.5625 -44.695312 6.1875 -51.378906 9.4375 -57.171875 C 12.695312 -62.972656 17.207031 -67.515625 22.96875 -70.796875 C 28.726562 -74.085938 35.359375 -75.734375 42.859375 -75.734375 C 49.148438 -75.734375 54.910156 -74.53125 60.140625 -72.125 C 65.378906 -69.726562 69.78125 -66.335938 73.34375 -61.953125 C 76.914062 -57.566406 79.410156 -52.40625 80.828125 -46.46875 L 63.4375 -46.46875 C 62.019531 -50.5625 59.507812 -53.789062 55.90625 -56.15625 C 52.300781 -58.53125 48.128906 -59.71875 43.390625 -59.71875 C 39.210938 -59.71875 35.476562 -58.765625 32.1875 -56.859375 C 28.90625 -54.953125 26.34375 -52.300781 24.5 -48.90625 C 22.664062 -45.507812 21.75 -41.582031 21.75 -37.125 C 21.75 -32.664062 22.664062 -28.738281 24.5 -25.34375 C 26.34375 -21.957031 28.890625 -19.304688 32.140625 -17.390625 C 35.390625 -15.484375 39.101562 -14.53125 43.28125 -14.53125 C 48.15625 -14.53125 52.429688 -15.785156 56.109375 -18.296875 C 59.785156 -20.804688 62.40625 -24.179688 63.96875 -28.421875 L 81.359375 -28.421875 C 80.160156 -22.410156 77.753906 -17.160156 74.140625 -12.671875 C 70.535156 -8.179688 66.0625 -4.695312 60.71875 -2.21875 C 55.382812 0.25 49.46875 1.484375 42.96875 1.484375 Z M 42.96875 1.484375 "/></g></g></g><g fill="#ffffff" fill-opacity="1"><g transform="translate(249.916712, 111.778935)"><g><path d="M 8.90625 0 L 8.90625 -74.25 L 40.625 -74.25 C 46.28125 -74.25 51.191406 -73.222656 55.359375 -71.171875 C 59.535156 -69.128906 62.753906 -66.195312 65.015625 -62.375 C 67.285156 -58.550781 68.421875 -53.988281 68.421875 -48.6875 C 68.421875 -43.238281 67.179688 -38.550781 64.703125 -34.625 C 62.234375 -30.707031 58.769531 -27.757812 54.3125 -25.78125 L 69.6875 0 L 50.171875 0 L 36.921875 -23.125 L 25.78125 -23.125 L 25.78125 0 Z M 25.5625 -37.34375 L 38.40625 -37.34375 C 42.570312 -37.34375 45.769531 -38.3125 48 -40.25 C 50.226562 -42.195312 51.34375 -44.972656 51.34375 -48.578125 C 51.34375 -52.191406 50.226562 -54.96875 48 -56.90625 C 45.769531 -58.851562 42.570312 -59.828125 38.40625 -59.828125 L 25.5625 -59.828125 Z M 25.5625 -37.34375 "/></g></g></g><g fill="#ffffff" fill-opacity="1"><g transform="translate(322.665986, 111.778935)"><g><path d="M 28.328125 0 L 28.328125 -25.984375 L 0.953125 -74.25 L 20.15625 -74.25 L 29.390625 -57.0625 L 36.8125 -43.59375 L 44.125 -57.0625 L 53.25 -74.25 L 72.453125 -74.25 L 45.1875 -26.203125 L 45.1875 0 Z M 28.328125 0 "/></g></g></g><g fill="#ffffff" fill-opacity="1"><g transform="translate(394.142673, 111.778935)"><g><path d="M 8.90625 0 L 8.90625 -74.25 L 37.96875 -74.25 C 43.988281 -74.25 49.1875 -73.148438 53.5625 -70.953125 C 57.945312 -68.765625 61.359375 -65.65625 63.796875 -61.625 C 66.242188 -57.59375 67.46875 -52.859375 67.46875 -47.421875 C 67.46875 -42.046875 66.242188 -37.34375 63.796875 -33.3125 C 61.359375 -29.28125 57.945312 -26.164062 53.5625 -23.96875 C 49.1875 -21.78125 43.988281 -20.6875 37.96875 -20.6875 L 25.78125 -20.6875 L 25.78125 0 Z M 25.671875 -35.21875 L 36.59375 -35.21875 C 40.976562 -35.21875 44.351562 -36.257812 46.71875 -38.34375 C 49.09375 -40.425781 50.28125 -43.414062 50.28125 -47.3125 C 50.28125 -51.195312 49.09375 -54.203125 46.71875 -56.328125 C 44.351562 -58.453125 40.976562 -59.515625 36.59375 -59.515625 L 25.671875 -59.515625 Z M 25.671875 -35.21875 "/></g></g></g><g fill="#ffffff" fill-opacity="1"><g transform="translate(462.756011, 111.778935)"><g><path d="M 26.734375 0 L 26.734375 -58.453125 L 3.1875 -58.453125 L 3.1875 -74.25 L 67.140625 -74.25 L 67.140625 -58.453125 L 43.59375 -58.453125 L 43.59375 0 Z M 26.734375 0 "/></g></g></g><g fill="#ffffff" fill-opacity="1"><g transform="translate(531.157263, 111.778935)"><g><path d="M 8.90625 0 L 8.90625 -74.25 L 25.78125 -74.25 L 25.78125 0 Z M 8.90625 0 "/></g></g></g><g fill="#ffffff" fill-opacity="1"><g transform="translate(563.925862, 111.778935)"><g><path d="M 42.96875 1.484375 C 35.46875 1.484375 28.816406 -0.15625 23.015625 -3.4375 C 17.222656 -6.726562 12.695312 -11.273438 9.4375 -17.078125 C 6.1875 -22.878906 4.5625 -29.5625 4.5625 -37.125 C 4.5625 -44.695312 6.1875 -51.378906 9.4375 -57.171875 C 12.695312 -62.972656 17.207031 -67.515625 22.96875 -70.796875 C 28.726562 -74.085938 35.359375 -75.734375 42.859375 -75.734375 C 49.148438 -75.734375 54.910156 -74.53125 60.140625 -72.125 C 65.378906 -69.726562 69.78125 -66.335938 73.34375 -61.953125 C 76.914062 -57.566406 79.410156 -52.40625 80.828125 -46.46875 L 63.4375 -46.46875 C 62.019531 -50.5625 59.507812 -53.789062 55.90625 -56.15625 C 52.300781 -58.53125 48.128906 -59.71875 43.390625 -59.71875 C 39.210938 -59.71875 35.476562 -58.765625 32.1875 -56.859375 C 28.90625 -54.953125 26.34375 -52.300781 24.5 -48.90625 C 22.664062 -45.507812 21.75 -41.582031 21.75 -37.125 C 21.75 -32.664062 22.664062 -28.738281 24.5 -25.34375 C 26.34375 -21.957031 28.890625 -19.304688 32.140625 -17.390625 C 35.390625 -15.484375 39.101562 -14.53125 43.28125 -14.53125 C 48.15625 -14.53125 52.429688 -15.785156 56.109375 -18.296875 C 59.785156 -20.804688 62.40625 -24.179688 63.96875 -28.421875 L 81.359375 -28.421875 C 80.160156 -22.410156 77.753906 -17.160156 74.140625 -12.671875 C 70.535156 -8.179688 66.0625 -4.695312 60.71875 -2.21875 C 55.382812 0.25 49.46875 1.484375 42.96875 1.484375 Z M 42.96875 1.484375 "/></g></g></g><g fill="#ffffff" fill-opacity="1"><g transform="translate(647.598237, 111.778935)"><g><path d="M 34.796875 1.484375 C 28.566406 1.484375 23.207031 0.457031 18.71875 -1.59375 C 14.226562 -3.644531 10.765625 -6.5625 8.328125 -10.34375 C 5.890625 -14.125 4.671875 -18.5625 4.671875 -23.65625 L 21.21875 -23.65625 C 21.21875 -20.113281 22.4375 -17.351562 24.875 -15.375 C 27.3125 -13.394531 30.582031 -12.40625 34.6875 -12.40625 C 38.21875 -12.40625 41.007812 -13.09375 43.0625 -14.46875 C 45.113281 -15.851562 46.140625 -17.785156 46.140625 -20.265625 C 46.140625 -22.878906 44.898438 -25 42.421875 -26.625 C 39.953125 -28.25 36.101562 -29.628906 30.875 -30.765625 C 22.175781 -32.597656 15.738281 -35.390625 11.5625 -39.140625 C 7.382812 -42.890625 5.296875 -47.769531 5.296875 -53.78125 C 5.296875 -60.570312 7.769531 -65.925781 12.71875 -69.84375 C 17.675781 -73.769531 24.429688 -75.734375 32.984375 -75.734375 C 38.859375 -75.734375 43.953125 -74.722656 48.265625 -72.703125 C 52.578125 -70.691406 55.914062 -67.863281 58.28125 -64.21875 C 60.65625 -60.582031 61.84375 -56.253906 61.84375 -51.234375 L 45.609375 -51.234375 C 45.609375 -54.554688 44.507812 -57.171875 42.3125 -59.078125 C 40.125 -60.992188 37.085938 -61.953125 33.203125 -61.953125 C 29.671875 -61.953125 26.878906 -61.257812 24.828125 -59.875 C 22.773438 -58.5 21.75 -56.570312 21.75 -54.09375 C 21.75 -51.832031 22.878906 -49.921875 25.140625 -48.359375 C 27.398438 -46.804688 31.359375 -45.359375 37.015625 -44.015625 C 46.285156 -41.828125 52.96875 -38.894531 57.0625 -35.21875 C 61.164062 -31.539062 63.21875 -26.765625 63.21875 -20.890625 C 63.21875 -13.890625 60.6875 -8.410156 55.625 -4.453125 C 50.570312 -0.492188 43.628906 1.484375 34.796875 1.484375 Z M 34.796875 1.484375 "/></g></g></g><g clip-path="url(#841f0f9dea)"><g transform="matrix(1, 0, 0, 1, 6, 136)"><g clip-path="url(#23435e44a0)"><g fill="#737373" fill-opacity="1"><g transform="translate(0.858203, 34.555025)"><g><path d="M 10.28125 0.4375 C 8.445312 0.4375 6.863281 0.132812 5.53125 -0.46875 C 4.207031 -1.070312 3.179688 -1.929688 2.453125 -3.046875 C 1.734375 -4.171875 1.375 -5.488281 1.375 -7 L 6.265625 -7 C 6.265625 -5.945312 6.625 -5.128906 7.34375 -4.546875 C 8.070312 -3.960938 9.039062 -3.671875 10.25 -3.671875 C 11.300781 -3.671875 12.128906 -3.875 12.734375 -4.28125 C 13.335938 -4.6875 13.640625 -5.253906 13.640625 -5.984375 C 13.640625 -6.765625 13.273438 -7.394531 12.546875 -7.875 C 11.816406 -8.351562 10.675781 -8.757812 9.125 -9.09375 C 6.550781 -9.632812 4.644531 -10.457031 3.40625 -11.5625 C 2.175781 -12.675781 1.5625 -14.125 1.5625 -15.90625 C 1.5625 -17.90625 2.289062 -19.484375 3.75 -20.640625 C 5.21875 -21.804688 7.21875 -22.390625 9.75 -22.390625 C 11.488281 -22.390625 12.992188 -22.09375 14.265625 -21.5 C 15.546875 -20.90625 16.535156 -20.066406 17.234375 -18.984375 C 17.929688 -17.910156 18.28125 -16.628906 18.28125 -15.140625 L 13.484375 -15.140625 C 13.484375 -16.128906 13.160156 -16.90625 12.515625 -17.46875 C 11.867188 -18.03125 10.96875 -18.3125 9.8125 -18.3125 C 8.769531 -18.3125 7.941406 -18.109375 7.328125 -17.703125 C 6.722656 -17.296875 6.421875 -16.726562 6.421875 -16 C 6.421875 -15.320312 6.753906 -14.753906 7.421875 -14.296875 C 8.097656 -13.835938 9.269531 -13.410156 10.9375 -13.015625 C 13.675781 -12.367188 15.648438 -11.5 16.859375 -10.40625 C 18.078125 -9.320312 18.6875 -7.910156 18.6875 -6.171875 C 18.6875 -4.109375 17.9375 -2.488281 16.4375 -1.3125 C 14.945312 -0.144531 12.894531 0.4375 10.28125 0.4375 Z M 10.28125 0.4375 "/></g></g></g><g fill="#737373" fill-opacity="1"><g transform="translate(20.952332, 34.555025)"><g><path d="M 2.640625 0 L 2.640625 -21.953125 L 6.875 -21.953125 L 14.671875 -10.5625 L 22.453125 -21.953125 L 26.65625 -21.953125 L 26.65625 0 L 21.703125 0 L 21.703125 -13.203125 L 16.375 -5.421875 L 12.921875 -5.421875 L 7.59375 -13.234375 L 7.59375 0 Z M 2.640625 0 "/></g></g></g><g fill="#737373" fill-opacity="1"><g transform="translate(50.231454, 34.555025)"><g><path d="M 0.28125 0 L 9 -21.953125 L 13.890625 -21.953125 L 22.609375 0 L 17.28125 0 L 15.8125 -3.796875 L 7.09375 -3.796875 L 5.609375 0 Z M 8.375 -7.71875 L 14.546875 -7.71875 L 11.453125 -15.75 Z M 8.375 -7.71875 "/></g></g></g><g fill="#737373" fill-opacity="1"><g transform="translate(73.115571, 34.555025)"><g><path d="M 2.640625 0 L 2.640625 -21.953125 L 12.015625 -21.953125 C 13.679688 -21.953125 15.128906 -21.644531 16.359375 -21.03125 C 17.597656 -20.425781 18.550781 -19.5625 19.21875 -18.4375 C 19.894531 -17.3125 20.234375 -15.960938 20.234375 -14.390625 C 20.234375 -12.785156 19.863281 -11.398438 19.125 -10.234375 C 18.394531 -9.078125 17.375 -8.207031 16.0625 -7.625 L 20.609375 0 L 14.828125 0 L 10.90625 -6.84375 L 7.625 -6.84375 L 7.625 0 Z M 7.5625 -11.03125 L 11.359375 -11.03125 C 12.585938 -11.03125 13.53125 -11.316406 14.1875 -11.890625 C 14.84375 -12.472656 15.171875 -13.296875 15.171875 -14.359375 C 15.171875 -15.429688 14.84375 -16.253906 14.1875 -16.828125 C 13.53125 -17.398438 12.585938 -17.6875 11.359375 -17.6875 L 7.5625 -17.6875 Z M 7.5625 -11.03125 "/></g></g></g><g fill="#737373" fill-opacity="1"><g transform="translate(94.306661, 34.555025)"><g><path d="M 7.90625 0 L 7.90625 -17.28125 L 0.9375 -17.28125 L 0.9375 -21.953125 L 19.84375 -21.953125 L 19.84375 -17.28125 L 12.890625 -17.28125 L 12.890625 0 Z M 7.90625 0 "/></g></g></g><g fill="#737373" fill-opacity="1"><g transform="translate(113.522647, 34.555025)"><g/></g></g><g fill="#737373" fill-opacity="1"><g transform="translate(120.199618, 34.555025)"><g><path d="M 0.28125 0 L 9 -21.953125 L 13.890625 -21.953125 L 22.609375 0 L 17.28125 0 L 15.8125 -3.796875 L 7.09375 -3.796875 L 5.609375 0 Z M 8.375 -7.71875 L 14.546875 -7.71875 L 11.453125 -15.75 Z M 8.375 -7.71875 "/></g></g></g><g fill="#737373" fill-opacity="1"><g transform="translate(142.017626, 34.555025)"><g><path d="M 11.609375 0.4375 C 9.703125 0.4375 8.0625 0.0546875 6.6875 -0.703125 C 5.320312 -1.460938 4.269531 -2.546875 3.53125 -3.953125 C 2.789062 -5.367188 2.421875 -7.0625 2.421875 -9.03125 L 2.421875 -21.953125 L 7.40625 -21.953125 L 7.40625 -9.375 C 7.40625 -5.988281 8.804688 -4.296875 11.609375 -4.296875 C 14.410156 -4.296875 15.8125 -5.988281 15.8125 -9.375 L 15.8125 -21.953125 L 20.796875 -21.953125 L 20.796875 -9.03125 C 20.796875 -7.0625 20.421875 -5.367188 19.671875 -3.953125 C 18.929688 -2.546875 17.875 -1.460938 16.5 -0.703125 C 15.132812 0.0546875 13.503906 0.4375 11.609375 0.4375 Z M 11.609375 0.4375 "/></g></g></g><g fill="#737373" fill-opacity="1"><g transform="translate(165.215224, 34.555025)"><g><path d="M 7.90625 0 L 7.90625 -17.28125 L 0.9375 -17.28125 L 0.9375 -21.953125 L 19.84375 -21.953125 L 19.84375 -17.28125 L 12.890625 -17.28125 L 12.890625 0 Z M 7.90625 0 "/></g></g></g><g fill="#737373" fill-opacity="1"><g transform="translate(184.776128, 34.555025)"><g><path d="M 13.046875 0.4375 C 10.765625 0.4375 8.738281 -0.046875 6.96875 -1.015625 C 5.207031 -1.992188 3.828125 -3.335938 2.828125 -5.046875 C 1.835938 -6.765625 1.34375 -8.738281 1.34375 -10.96875 C 1.34375 -13.207031 1.835938 -15.179688 2.828125 -16.890625 C 3.828125 -18.609375 5.207031 -19.953125 6.96875 -20.921875 C 8.738281 -21.898438 10.765625 -22.390625 13.046875 -22.390625 C 15.347656 -22.390625 17.375 -21.898438 19.125 -20.921875 C 20.882812 -19.953125 22.265625 -18.609375 23.265625 -16.890625 C 24.273438 -15.179688 24.78125 -13.207031 24.78125 -10.96875 C 24.78125 -8.738281 24.273438 -6.765625 23.265625 -5.046875 C 22.265625 -3.335938 20.882812 -1.992188 19.125 -1.015625 C 17.375 -0.046875 15.347656 0.4375 13.046875 0.4375 Z M 6.421875 -10.96875 C 6.421875 -9.65625 6.703125 -8.492188 7.265625 -7.484375 C 7.835938 -6.484375 8.617188 -5.703125 9.609375 -5.140625 C 10.597656 -4.578125 11.742188 -4.296875 13.046875 -4.296875 C 14.359375 -4.296875 15.507812 -4.578125 16.5 -5.140625 C 17.5 -5.703125 18.273438 -6.484375 18.828125 -7.484375 C 19.378906 -8.492188 19.65625 -9.65625 19.65625 -10.96875 C 19.65625 -12.289062 19.378906 -13.453125 18.828125 -14.453125 C 18.273438 -15.460938 17.5 -16.25 16.5 -16.8125 C 15.507812 -17.375 14.359375 -17.65625 13.046875 -17.65625 C 11.742188 -17.65625 10.597656 -17.375 9.609375 -16.8125 C 8.617188 -16.25 7.835938 -15.460938 7.265625 -14.453125 C 6.703125 -13.453125 6.421875 -12.289062 6.421875 -10.96875 Z M 6.421875 -10.96875 "/></g></g></g><g fill="#737373" fill-opacity="1"><g transform="translate(210.889092, 34.555025)"><g><path d="M 2.640625 0 L 2.640625 -21.953125 L 6.875 -21.953125 L 14.671875 -10.5625 L 22.453125 -21.953125 L 26.65625 -21.953125 L 26.65625 0 L 21.703125 0 L 21.703125 -13.203125 L 16.375 -5.421875 L 12.921875 -5.421875 L 7.59375 -13.234375 L 7.59375 0 Z M 2.640625 0 "/></g></g></g><g fill="#737373" fill-opacity="1"><g transform="translate(240.168226, 34.555025)"><g><path d="M 0.28125 0 L 9 -21.953125 L 13.890625 -21.953125 L 22.609375 0 L 17.28125 0 L 15.8125 -3.796875 L 7.09375 -3.796875 L 5.609375 0 Z M 8.375 -7.71875 L 14.546875 -7.71875 L 11.453125 -15.75 Z M 8.375 -7.71875 "/></g></g></g><g fill="#737373" fill-opacity="1"><g transform="translate(260.669288, 34.555025)"><g><path d="M 7.90625 0 L 7.90625 -17.28125 L 0.9375 -17.28125 L 0.9375 -21.953125 L 19.84375 -21.953125 L 19.84375 -17.28125 L 12.890625 -17.28125 L 12.890625 0 Z M 7.90625 0 "/></g></g></g><g fill="#737373" fill-opacity="1"><g transform="translate(281.453058, 34.555025)"><g><path d="M 2.640625 0 L 2.640625 -21.953125 L 7.625 -21.953125 L 7.625 0 Z M 2.640625 0 "/></g></g></g><g fill="#737373" fill-opacity="1"><g transform="translate(291.703909, 34.555025)"><g><path d="M 13.046875 0.4375 C 10.765625 0.4375 8.738281 -0.046875 6.96875 -1.015625 C 5.207031 -1.992188 3.828125 -3.335938 2.828125 -5.046875 C 1.835938 -6.765625 1.34375 -8.738281 1.34375 -10.96875 C 1.34375 -13.207031 1.835938 -15.179688 2.828125 -16.890625 C 3.828125 -18.609375 5.207031 -19.953125 6.96875 -20.921875 C 8.738281 -21.898438 10.765625 -22.390625 13.046875 -22.390625 C 15.347656 -22.390625 17.375 -21.898438 19.125 -20.921875 C 20.882812 -19.953125 22.265625 -18.609375 23.265625 -16.890625 C 24.273438 -15.179688 24.78125 -13.207031 24.78125 -10.96875 C 24.78125 -8.738281 24.273438 -6.765625 23.265625 -5.046875 C 22.265625 -3.335938 20.882812 -1.992188 19.125 -1.015625 C 17.375 -0.046875 15.347656 0.4375 13.046875 0.4375 Z M 6.421875 -10.96875 C 6.421875 -9.65625 6.703125 -8.492188 7.265625 -7.484375 C 7.835938 -6.484375 8.617188 -5.703125 9.609375 -5.140625 C 10.597656 -4.578125 11.742188 -4.296875 13.046875 -4.296875 C 14.359375 -4.296875 15.507812 -4.578125 16.5 -5.140625 C 17.5 -5.703125 18.273438 -6.484375 18.828125 -7.484375 C 19.378906 -8.492188 19.65625 -9.65625 19.65625 -10.96875 C 19.65625 -12.289062 19.378906 -13.453125 18.828125 -14.453125 C 18.273438 -15.460938 17.5 -16.25 16.5 -16.8125 C 15.507812 -17.375 14.359375 -17.65625 13.046875 -17.65625 C 11.742188 -17.65625 10.597656 -17.375 9.609375 -16.8125 C 8.617188 -16.25 7.835938 -15.460938 7.265625 -14.453125 C 6.703125 -13.453125 6.421875 -12.289062 6.421875 -10.96875 Z M 6.421875 -10.96875 "/></g></g></g><g fill="#737373" fill-opacity="1"><g transform="translate(317.81685, 34.555025)"><g><path d="M 2.640625 0 L 2.640625 -21.953125 L 6.875 -21.953125 L 16.5625 -8.59375 L 16.5625 -21.953125 L 21.515625 -21.953125 L 21.515625 0 L 17.28125 0 L 7.59375 -13.453125 L 7.59375 0 Z M 2.640625 0 "/></g></g></g><g fill="#737373" fill-opacity="1"><g transform="translate(341.954903, 34.555025)"><g><path d="M 4.203125 0.34375 C 3.347656 0.34375 2.644531 0.078125 2.09375 -0.453125 C 1.550781 -0.984375 1.28125 -1.660156 1.28125 -2.484375 C 1.28125 -3.296875 1.550781 -3.972656 2.09375 -4.515625 C 2.644531 -5.054688 3.347656 -5.328125 4.203125 -5.328125 C 5.054688 -5.328125 5.753906 -5.054688 6.296875 -4.515625 C 6.847656 -3.972656 7.125 -3.296875 7.125 -2.484375 C 7.125 -1.660156 6.847656 -0.984375 6.296875 -0.453125 C 5.753906 0.078125 5.054688 0.34375 4.203125 0.34375 Z M 4.203125 0.34375 "/></g></g></g><g fill="#737373" fill-opacity="1"><g transform="translate(350.324843, 34.555025)"><g/></g></g><g fill="#737373" fill-opacity="1"><g transform="translate(357.69166, 34.555025)"><g><path d="M 2.640625 0 L 2.640625 -21.953125 L 12.015625 -21.953125 C 13.679688 -21.953125 15.128906 -21.644531 16.359375 -21.03125 C 17.597656 -20.425781 18.550781 -19.5625 19.21875 -18.4375 C 19.894531 -17.3125 20.234375 -15.960938 20.234375 -14.390625 C 20.234375 -12.785156 19.863281 -11.398438 19.125 -10.234375 C 18.394531 -9.078125 17.375 -8.207031 16.0625 -7.625 L 20.609375 0 L 14.828125 0 L 10.90625 -6.84375 L 7.625 -6.84375 L 7.625 0 Z M 7.5625 -11.03125 L 11.359375 -11.03125 C 12.585938 -11.03125 13.53125 -11.316406 14.1875 -11.890625 C 14.84375 -12.472656 15.171875 -13.296875 15.171875 -14.359375 C 15.171875 -15.429688 14.84375 -16.253906 14.1875 -16.828125 C 13.53125 -17.398438 12.585938 -17.6875 11.359375 -17.6875 L 7.5625 -17.6875 Z M 7.5625 -11.03125 "/></g></g></g><g fill="#737373" fill-opacity="1"><g transform="translate(379.760712, 34.555025)"><g><path d="M 2.640625 0 L 2.640625 -21.953125 L 17.0625 -21.953125 L 17.0625 -17.75 L 7.59375 -17.75 L 7.59375 -13.203125 L 16.21875 -13.203125 L 16.21875 -9.03125 L 7.59375 -9.03125 L 7.59375 -4.234375 L 17.40625 -4.234375 L 17.40625 0 Z M 2.640625 0 "/></g></g></g><g fill="#737373" fill-opacity="1"><g transform="translate(398.757684, 34.555025)"><g><path d="M 2.640625 0 L 2.640625 -21.953125 L 7.625 -21.953125 L 7.625 -4.671875 L 17.21875 -4.671875 L 17.21875 0 Z M 2.640625 0 "/></g></g></g><g fill="#737373" fill-opacity="1"><g transform="translate(416.814156, 34.555025)"><g><path d="M 2.640625 0 L 2.640625 -21.953125 L 7.625 -21.953125 L 7.625 0 Z M 2.640625 0 "/></g></g></g><g fill="#737373" fill-opacity="1"><g transform="translate(427.065007, 34.555025)"><g><path d="M 0.28125 0 L 9 -21.953125 L 13.890625 -21.953125 L 22.609375 0 L 17.28125 0 L 15.8125 -3.796875 L 7.09375 -3.796875 L 5.609375 0 Z M 8.375 -7.71875 L 14.546875 -7.71875 L 11.453125 -15.75 Z M 8.375 -7.71875 "/></g></g></g><g fill="#737373" fill-opacity="1"><g transform="translate(449.949089, 34.555025)"><g><path d="M 2.640625 0 L 2.640625 -21.953125 L 12.453125 -21.953125 C 14.691406 -21.953125 16.46875 -21.414062 17.78125 -20.34375 C 19.09375 -19.28125 19.75 -17.851562 19.75 -16.0625 C 19.75 -15.03125 19.519531 -14.097656 19.0625 -13.265625 C 18.601562 -12.429688 17.957031 -11.773438 17.125 -11.296875 C 18.164062 -10.828125 18.972656 -10.144531 19.546875 -9.25 C 20.128906 -8.351562 20.421875 -7.316406 20.421875 -6.140625 C 20.421875 -4.910156 20.101562 -3.832031 19.46875 -2.90625 C 18.84375 -1.988281 17.96875 -1.273438 16.84375 -0.765625 C 15.726562 -0.253906 14.429688 0 12.953125 0 Z M 7.5625 -3.953125 L 12.203125 -3.953125 C 13.179688 -3.953125 13.941406 -4.179688 14.484375 -4.640625 C 15.023438 -5.097656 15.296875 -5.742188 15.296875 -6.578125 C 15.296875 -7.421875 15.023438 -8.070312 14.484375 -8.53125 C 13.941406 -8.988281 13.179688 -9.21875 12.203125 -9.21875 L 7.5625 -9.21875 Z M 7.5625 -13.015625 L 11.703125 -13.015625 C 12.660156 -13.015625 13.394531 -13.234375 13.90625 -13.671875 C 14.414062 -14.109375 14.671875 -14.722656 14.671875 -15.515625 C 14.671875 -16.316406 14.414062 -16.929688 13.90625 -17.359375 C 13.394531 -17.785156 12.660156 -18 11.703125 -18 L 7.5625 -18 Z M 7.5625 -13.015625 "/></g></g></g><g fill="#737373" fill-opacity="1"><g transform="translate(471.547981, 34.555025)"><g><path d="M 2.640625 0 L 2.640625 -21.953125 L 7.625 -21.953125 L 7.625 -4.671875 L 17.21875 -4.671875 L 17.21875 0 Z M 2.640625 0 "/></g></g></g><g fill="#737373" fill-opacity="1"><g transform="translate(489.604453, 34.555025)"><g><path d="M 2.640625 0 L 2.640625 -21.953125 L 17.0625 -21.953125 L 17.0625 -17.75 L 7.59375 -17.75 L 7.59375 -13.203125 L 16.21875 -13.203125 L 16.21875 -9.03125 L 7.59375 -9.03125 L 7.59375 -4.234375 L 17.40625 -4.234375 L 17.40625 0 Z M 2.640625 0 "/></g></g></g><g fill="#737373" fill-opacity="1"><g transform="translate(508.601425, 34.555025)"><g/></g></g><g fill="#737373" fill-opacity="1"><g transform="translate(515.466499, 34.555025)"><g><path d="M 10.28125 0.4375 C 8.445312 0.4375 6.863281 0.132812 5.53125 -0.46875 C 4.207031 -1.070312 3.179688 -1.929688 2.453125 -3.046875 C 1.734375 -4.171875 1.375 -5.488281 1.375 -7 L 6.265625 -7 C 6.265625 -5.945312 6.625 -5.128906 7.34375 -4.546875 C 8.070312 -3.960938 9.039062 -3.671875 10.25 -3.671875 C 11.300781 -3.671875 12.128906 -3.875 12.734375 -4.28125 C 13.335938 -4.6875 13.640625 -5.253906 13.640625 -5.984375 C 13.640625 -6.765625 13.273438 -7.394531 12.546875 -7.875 C 11.816406 -8.351562 10.675781 -8.757812 9.125 -9.09375 C 6.550781 -9.632812 4.644531 -10.457031 3.40625 -11.5625 C 2.175781 -12.675781 1.5625 -14.125 1.5625 -15.90625 C 1.5625 -17.90625 2.289062 -19.484375 3.75 -20.640625 C 5.21875 -21.804688 7.21875 -22.390625 9.75 -22.390625 C 11.488281 -22.390625 12.992188 -22.09375 14.265625 -21.5 C 15.546875 -20.90625 16.535156 -20.066406 17.234375 -18.984375 C 17.929688 -17.910156 18.28125 -16.628906 18.28125 -15.140625 L 13.484375 -15.140625 C 13.484375 -16.128906 13.160156 -16.90625 12.515625 -17.46875 C 11.867188 -18.03125 10.96875 -18.3125 9.8125 -18.3125 C 8.769531 -18.3125 7.941406 -18.109375 7.328125 -17.703125 C 6.722656 -17.296875 6.421875 -16.726562 6.421875 -16 C 6.421875 -15.320312 6.753906 -14.753906 7.421875 -14.296875 C 8.097656 -13.835938 9.269531 -13.410156 10.9375 -13.015625 C 13.675781 -12.367188 15.648438 -11.5 16.859375 -10.40625 C 18.078125 -9.320312 18.6875 -7.910156 18.6875 -6.171875 C 18.6875 -4.109375 17.9375 -2.488281 16.4375 -1.3125 C 14.945312 -0.144531 12.894531 0.4375 10.28125 0.4375 Z M 10.28125 0.4375 "/></g></g></g><g fill="#737373" fill-opacity="1"><g transform="translate(535.560662, 34.555025)"><g><path d="M 13.046875 0.4375 C 10.765625 0.4375 8.738281 -0.046875 6.96875 -1.015625 C 5.207031 -1.992188 3.828125 -3.335938 2.828125 -5.046875 C 1.835938 -6.765625 1.34375 -8.738281 1.34375 -10.96875 C 1.34375 -13.207031 1.835938 -15.179688 2.828125 -16.890625 C 3.828125 -18.609375 5.207031 -19.953125 6.96875 -20.921875 C 8.738281 -21.898438 10.765625 -22.390625 13.046875 -22.390625 C 15.347656 -22.390625 17.375 -21.898438 19.125 -20.921875 C 20.882812 -19.953125 22.265625 -18.609375 23.265625 -16.890625 C 24.273438 -15.179688 24.78125 -13.207031 24.78125 -10.96875 C 24.78125 -8.738281 24.273438 -6.765625 23.265625 -5.046875 C 22.265625 -3.335938 20.882812 -1.992188 19.125 -1.015625 C 17.375 -0.046875 15.347656 0.4375 13.046875 0.4375 Z M 6.421875 -10.96875 C 6.421875 -9.65625 6.703125 -8.492188 7.265625 -7.484375 C 7.835938 -6.484375 8.617188 -5.703125 9.609375 -5.140625 C 10.597656 -4.578125 11.742188 -4.296875 13.046875 -4.296875 C 14.359375 -4.296875 15.507812 -4.578125 16.5 -5.140625 C 17.5 -5.703125 18.273438 -6.484375 18.828125 -7.484375 C 19.378906 -8.492188 19.65625 -9.65625 19.65625 -10.96875 C 19.65625 -12.289062 19.378906 -13.453125 18.828125 -14.453125 C 18.273438 -15.460938 17.5 -16.25 16.5 -16.8125 C 15.507812 -17.375 14.359375 -17.65625 13.046875 -17.65625 C 11.742188 -17.65625 10.597656 -17.375 9.609375 -16.8125 C 8.617188 -16.25 7.835938 -15.460938 7.265625 -14.453125 C 6.703125 -13.453125 6.421875 -12.289062 6.421875 -10.96875 Z M 6.421875 -10.96875 "/></g></g></g><g fill="#737373" fill-opacity="1"><g transform="translate(561.673603, 34.555025)"><g><path d="M 2.640625 0 L 2.640625 -21.953125 L 16.40625 -21.953125 L 16.40625 -17.4375 L 7.625 -17.4375 L 7.625 -11.953125 L 15.578125 -11.953125 L 15.578125 -7.5625 L 7.625 -7.5625 L 7.625 0 Z M 2.640625 0 "/></g></g></g><g fill="#737373" fill-opacity="1"><g transform="translate(579.448007, 34.555025)"><g><path d="M 7.90625 0 L 7.90625 -17.28125 L 0.9375 -17.28125 L 0.9375 -21.953125 L 19.84375 -21.953125 L 19.84375 -17.28125 L 12.890625 -17.28125 L 12.890625 0 Z M 7.90625 0 "/></g></g></g><g fill="#737373" fill-opacity="1"><g transform="translate(600.231777, 34.555025)"><g><path d="M 7.375 0 L 0.3125 -21.953125 L 5.609375 -21.953125 L 7.71875 -15.265625 L 10.03125 -8.0625 L 12.546875 -15.265625 L 14.890625 -21.953125 L 19.625 -21.953125 L 21.984375 -15.265625 L 24.515625 -7.96875 L 26.875 -15.265625 L 28.96875 -21.953125 L 34.25 -21.953125 L 27.15625 0 L 22.265625 0 L 17.28125 -14.203125 L 12.296875 0 Z M 7.375 0 "/></g></g></g><g fill="#737373" fill-opacity="1"><g transform="translate(632.80198, 34.555025)"><g><path d="M 0.28125 0 L 9 -21.953125 L 13.890625 -21.953125 L 22.609375 0 L 17.28125 0 L 15.8125 -3.796875 L 7.09375 -3.796875 L 5.609375 0 Z M 8.375 -7.71875 L 14.546875 -7.71875 L 11.453125 -15.75 Z M 8.375 -7.71875 "/></g></g></g><g fill="#737373" fill-opacity="1"><g transform="translate(655.686062, 34.555025)"><g><path d="M 2.640625 0 L 2.640625 -21.953125 L 12.015625 -21.953125 C 13.679688 -21.953125 15.128906 -21.644531 16.359375 -21.03125 C 17.597656 -20.425781 18.550781 -19.5625 19.21875 -18.4375 C 19.894531 -17.3125 20.234375 -15.960938 20.234375 -14.390625 C 20.234375 -12.785156 19.863281 -11.398438 19.125 -10.234375 C 18.394531 -9.078125 17.375 -8.207031 16.0625 -7.625 L 20.609375 0 L 14.828125 0 L 10.90625 -6.84375 L 7.625 -6.84375 L 7.625 0 Z M 7.5625 -11.03125 L 11.359375 -11.03125 C 12.585938 -11.03125 13.53125 -11.316406 14.1875 -11.890625 C 14.84375 -12.472656 15.171875 -13.296875 15.171875 -14.359375 C 15.171875 -15.429688 14.84375 -16.253906 14.1875 -16.828125 C 13.53125 -17.398438 12.585938 -17.6875 11.359375 -17.6875 L 7.5625 -17.6875 Z M 7.5625 -11.03125 "/></g></g></g><g fill="#737373" fill-opacity="1"><g transform="translate(677.755159, 34.555025)"><g><path d="M 2.640625 0 L 2.640625 -21.953125 L 17.0625 -21.953125 L 17.0625 -17.75 L 7.59375 -17.75 L 7.59375 -13.203125 L 16.21875 -13.203125 L 16.21875 -9.03125 L 7.59375 -9.03125 L 7.59375 -4.234375 L 17.40625 -4.234375 L 17.40625 0 Z M 2.640625 0 "/></g></g></g><g fill="#737373" fill-opacity="1"><g transform="translate(696.752086, 34.555025)"><g><path d="M 4.203125 0.34375 C 3.347656 0.34375 2.644531 0.078125 2.09375 -0.453125 C 1.550781 -0.984375 1.28125 -1.660156 1.28125 -2.484375 C 1.28125 -3.296875 1.550781 -3.972656 2.09375 -4.515625 C 2.644531 -5.054688 3.347656 -5.328125 4.203125 -5.328125 C 5.054688 -5.328125 5.753906 -5.054688 6.296875 -4.515625 C 6.847656 -3.972656 7.125 -3.296875 7.125 -2.484375 C 7.125 -1.660156 6.847656 -0.984375 6.296875 -0.453125 C 5.753906 0.078125 5.054688 0.34375 4.203125 0.34375 Z M 4.203125 0.34375 "/></g></g></g></g></g></g></g></g></svg>