<svg xmlns="http://www.w3.org/2000/svg" xmlns:xlink="http://www.w3.org/1999/xlink" width="600" zoomAndPan="magnify" viewBox="0 0 450 74.999997" height="100" preserveAspectRatio="xMidYMid meet" version="1.0"><defs><g/></defs><g fill="#000000" fill-opacity="1"><g transform="translate(97.445171, 42.127181)"><g><path d="M 3 -3.421875 L 3 -9.328125 L 7.921875 -11.078125 L 11.453125 -12.40625 L 7.921875 -13.734375 L 3 -15.484375 L 3 -21.390625 L 19.53125 -14.75 L 19.53125 -10.09375 Z M 3 -3.421875 "/></g></g></g><g fill="#000000" fill-opacity="1"><g transform="translate(119.294676, 42.127181)"><g/></g></g><g fill="#000000" fill-opacity="1"><g transform="translate(127.526033, 42.127181)"><g><path d="M 3.1875 0 L 3.1875 -26.5625 L 8.3125 -26.5625 L 20.03125 -10.390625 L 20.03125 -26.5625 L 26.03125 -26.5625 L 26.03125 0 L 20.90625 0 L 9.1875 -16.28125 L 9.1875 0 Z M 3.1875 0 "/></g></g></g><g fill="#000000" fill-opacity="1"><g transform="translate(156.051848, 42.127181)"><g><path d="M 15.359375 0.53125 C 12.679688 0.53125 10.304688 -0.0546875 8.234375 -1.234375 C 6.160156 -2.410156 4.539062 -4.035156 3.375 -6.109375 C 2.207031 -8.179688 1.625 -10.570312 1.625 -13.28125 C 1.625 -15.988281 2.207031 -18.378906 3.375 -20.453125 C 4.539062 -22.523438 6.15625 -24.148438 8.21875 -25.328125 C 10.28125 -26.503906 12.648438 -27.09375 15.328125 -27.09375 C 17.578125 -27.09375 19.632812 -26.660156 21.5 -25.796875 C 23.375 -24.929688 24.953125 -23.710938 26.234375 -22.140625 C 27.515625 -20.578125 28.40625 -18.734375 28.90625 -16.609375 L 22.6875 -16.609375 C 22.175781 -18.078125 21.273438 -19.234375 19.984375 -20.078125 C 18.703125 -20.929688 17.210938 -21.359375 15.515625 -21.359375 C 14.023438 -21.359375 12.691406 -21.015625 11.515625 -20.328125 C 10.335938 -19.648438 9.421875 -18.703125 8.765625 -17.484375 C 8.109375 -16.273438 7.78125 -14.875 7.78125 -13.28125 C 7.78125 -11.6875 8.109375 -10.28125 8.765625 -9.0625 C 9.421875 -7.851562 10.328125 -6.90625 11.484375 -6.21875 C 12.648438 -5.539062 13.984375 -5.203125 15.484375 -5.203125 C 17.222656 -5.203125 18.75 -5.648438 20.0625 -6.546875 C 21.382812 -7.441406 22.320312 -8.648438 22.875 -10.171875 L 29.09375 -10.171875 C 28.664062 -8.015625 27.804688 -6.132812 26.515625 -4.53125 C 25.222656 -2.925781 23.625 -1.679688 21.71875 -0.796875 C 19.8125 0.0859375 17.691406 0.53125 15.359375 0.53125 Z M 15.359375 0.53125 "/></g></g></g><g fill="#000000" fill-opacity="1"><g transform="translate(185.981213, 42.127181)"><g><path d="M 3.1875 0 L 3.1875 -26.5625 L 14.53125 -26.5625 C 16.550781 -26.5625 18.304688 -26.191406 19.796875 -25.453125 C 21.296875 -24.722656 22.445312 -23.675781 23.25 -22.3125 C 24.0625 -20.945312 24.46875 -19.3125 24.46875 -17.40625 C 24.46875 -15.457031 24.023438 -13.78125 23.140625 -12.375 C 22.253906 -10.976562 21.015625 -9.925781 19.421875 -9.21875 L 24.921875 0 L 17.9375 0 L 13.203125 -8.265625 L 9.21875 -8.265625 L 9.21875 0 Z M 9.140625 -13.359375 L 13.734375 -13.359375 C 15.222656 -13.359375 16.363281 -13.703125 17.15625 -14.390625 C 17.957031 -15.085938 18.359375 -16.082031 18.359375 -17.375 C 18.359375 -18.664062 17.957031 -19.65625 17.15625 -20.34375 C 16.363281 -21.039062 15.222656 -21.390625 13.734375 -21.390625 L 9.140625 -21.390625 Z M 9.140625 -13.359375 "/></g></g></g><g fill="#000000" fill-opacity="1"><g transform="translate(212.003416, 42.127181)"><g><path d="M 10.125 0 L 10.125 -9.296875 L 0.34375 -26.5625 L 7.203125 -26.5625 L 10.515625 -20.40625 L 13.171875 -15.59375 L 15.78125 -20.40625 L 19.046875 -26.5625 L 25.90625 -26.5625 L 16.15625 -9.375 L 16.15625 0 Z M 10.125 0 "/></g></g></g><g fill="#000000" fill-opacity="1"><g transform="translate(237.570419, 42.127181)"><g><path d="M 3.1875 0 L 3.1875 -26.5625 L 13.578125 -26.5625 C 15.734375 -26.5625 17.59375 -26.164062 19.15625 -25.375 C 20.726562 -24.59375 21.945312 -23.476562 22.8125 -22.03125 C 23.6875 -20.59375 24.125 -18.898438 24.125 -16.953125 C 24.125 -15.035156 23.6875 -13.351562 22.8125 -11.90625 C 21.945312 -10.46875 20.726562 -9.351562 19.15625 -8.5625 C 17.59375 -7.78125 15.734375 -7.390625 13.578125 -7.390625 L 9.21875 -7.390625 L 9.21875 0 Z M 9.1875 -12.59375 L 13.09375 -12.59375 C 14.65625 -12.59375 15.859375 -12.960938 16.703125 -13.703125 C 17.554688 -14.453125 17.984375 -15.523438 17.984375 -16.921875 C 17.984375 -18.304688 17.554688 -19.378906 16.703125 -20.140625 C 15.859375 -20.898438 14.65625 -21.28125 13.09375 -21.28125 L 9.1875 -21.28125 Z M 9.1875 -12.59375 "/></g></g></g><g fill="#000000" fill-opacity="1"><g transform="translate(262.11321, 42.127181)"><g><path d="M 9.5625 0 L 9.5625 -20.90625 L 1.140625 -20.90625 L 1.140625 -26.5625 L 24.015625 -26.5625 L 24.015625 -20.90625 L 15.59375 -20.90625 L 15.59375 0 Z M 9.5625 0 "/></g></g></g><g fill="#000000" fill-opacity="1"><g transform="translate(286.580139, 42.127181)"><g><path d="M 3.1875 0 L 3.1875 -26.5625 L 9.21875 -26.5625 L 9.21875 0 Z M 3.1875 0 "/></g></g></g><g fill="#000000" fill-opacity="1"><g transform="translate(298.301371, 42.127181)"><g><path d="M 15.359375 0.53125 C 12.679688 0.53125 10.304688 -0.0546875 8.234375 -1.234375 C 6.160156 -2.410156 4.539062 -4.035156 3.375 -6.109375 C 2.207031 -8.179688 1.625 -10.570312 1.625 -13.28125 C 1.625 -15.988281 2.207031 -18.378906 3.375 -20.453125 C 4.539062 -22.523438 6.15625 -24.148438 8.21875 -25.328125 C 10.28125 -26.503906 12.648438 -27.09375 15.328125 -27.09375 C 17.578125 -27.09375 19.632812 -26.660156 21.5 -25.796875 C 23.375 -24.929688 24.953125 -23.710938 26.234375 -22.140625 C 27.515625 -20.578125 28.40625 -18.734375 28.90625 -16.609375 L 22.6875 -16.609375 C 22.175781 -18.078125 21.273438 -19.234375 19.984375 -20.078125 C 18.703125 -20.929688 17.210938 -21.359375 15.515625 -21.359375 C 14.023438 -21.359375 12.691406 -21.015625 11.515625 -20.328125 C 10.335938 -19.648438 9.421875 -18.703125 8.765625 -17.484375 C 8.109375 -16.273438 7.78125 -14.875 7.78125 -13.28125 C 7.78125 -11.6875 8.109375 -10.28125 8.765625 -9.0625 C 9.421875 -7.851562 10.328125 -6.90625 11.484375 -6.21875 C 12.648438 -5.539062 13.984375 -5.203125 15.484375 -5.203125 C 17.222656 -5.203125 18.75 -5.648438 20.0625 -6.546875 C 21.382812 -7.441406 22.320312 -8.648438 22.875 -10.171875 L 29.09375 -10.171875 C 28.664062 -8.015625 27.804688 -6.132812 26.515625 -4.53125 C 25.222656 -2.925781 23.625 -1.679688 21.71875 -0.796875 C 19.8125 0.0859375 17.691406 0.53125 15.359375 0.53125 Z M 15.359375 0.53125 "/></g></g></g><g fill="#000000" fill-opacity="1"><g transform="translate(328.230736, 42.127181)"><g><path d="M 12.4375 0.53125 C 10.21875 0.53125 8.300781 0.164062 6.6875 -0.5625 C 5.082031 -1.300781 3.84375 -2.347656 2.96875 -3.703125 C 2.101562 -5.054688 1.671875 -6.640625 1.671875 -8.453125 L 7.59375 -8.453125 C 7.59375 -7.191406 8.023438 -6.207031 8.890625 -5.5 C 9.765625 -4.789062 10.9375 -4.4375 12.40625 -4.4375 C 13.664062 -4.4375 14.660156 -4.679688 15.390625 -5.171875 C 16.128906 -5.671875 16.5 -6.363281 16.5 -7.25 C 16.5 -8.1875 16.054688 -8.941406 15.171875 -9.515625 C 14.285156 -10.097656 12.910156 -10.59375 11.046875 -11 C 7.929688 -11.65625 5.625 -12.65625 4.125 -14 C 2.632812 -15.34375 1.890625 -17.085938 1.890625 -19.234375 C 1.890625 -21.660156 2.773438 -23.578125 4.546875 -24.984375 C 6.316406 -26.390625 8.734375 -27.09375 11.796875 -27.09375 C 13.898438 -27.09375 15.722656 -26.726562 17.265625 -26 C 18.804688 -25.28125 20 -24.269531 20.84375 -22.96875 C 21.695312 -21.664062 22.125 -20.117188 22.125 -18.328125 L 16.3125 -18.328125 C 16.3125 -19.515625 15.921875 -20.445312 15.140625 -21.125 C 14.359375 -21.8125 13.269531 -22.15625 11.875 -22.15625 C 10.613281 -22.15625 9.613281 -21.90625 8.875 -21.40625 C 8.144531 -20.914062 7.78125 -20.226562 7.78125 -19.34375 C 7.78125 -18.539062 8.179688 -17.859375 8.984375 -17.296875 C 9.796875 -16.742188 11.210938 -16.226562 13.234375 -15.75 C 16.546875 -14.957031 18.9375 -13.90625 20.40625 -12.59375 C 21.875 -11.28125 22.609375 -9.570312 22.609375 -7.46875 C 22.609375 -4.96875 21.703125 -3.007812 19.890625 -1.59375 C 18.085938 -0.175781 15.601562 0.53125 12.4375 0.53125 Z M 12.4375 0.53125 "/></g></g></g><g fill="#b4b4b4" fill-opacity="1"><g transform="translate(99.146076, 62.882531)"><g><path d="M 3.6875 0.15625 C 3.019531 0.15625 2.445312 0.046875 1.96875 -0.171875 C 1.5 -0.390625 1.132812 -0.695312 0.875 -1.09375 C 0.625 -1.488281 0.5 -1.957031 0.5 -2.5 L 2.25 -2.5 C 2.25 -2.125 2.375 -1.832031 2.625 -1.625 C 2.882812 -1.414062 3.234375 -1.3125 3.671875 -1.3125 C 4.046875 -1.3125 4.335938 -1.382812 4.546875 -1.53125 C 4.765625 -1.675781 4.875 -1.878906 4.875 -2.140625 C 4.875 -2.421875 4.742188 -2.644531 4.484375 -2.8125 C 4.222656 -2.988281 3.816406 -3.132812 3.265625 -3.25 C 2.347656 -3.445312 1.664062 -3.742188 1.21875 -4.140625 C 0.78125 -4.535156 0.5625 -5.050781 0.5625 -5.6875 C 0.5625 -6.40625 0.820312 -6.972656 1.34375 -7.390625 C 1.863281 -7.804688 2.578125 -8.015625 3.484375 -8.015625 C 4.109375 -8.015625 4.644531 -7.90625 5.09375 -7.6875 C 5.550781 -7.476562 5.90625 -7.179688 6.15625 -6.796875 C 6.414062 -6.410156 6.546875 -5.953125 6.546875 -5.421875 L 4.828125 -5.421875 C 4.828125 -5.773438 4.707031 -6.050781 4.46875 -6.25 C 4.238281 -6.445312 3.921875 -6.546875 3.515625 -6.546875 C 3.140625 -6.546875 2.84375 -6.472656 2.625 -6.328125 C 2.40625 -6.179688 2.296875 -5.976562 2.296875 -5.71875 C 2.296875 -5.476562 2.414062 -5.273438 2.65625 -5.109375 C 2.894531 -4.953125 3.316406 -4.800781 3.921875 -4.65625 C 4.898438 -4.425781 5.601562 -4.113281 6.03125 -3.71875 C 6.46875 -3.332031 6.6875 -2.828125 6.6875 -2.203125 C 6.6875 -1.460938 6.414062 -0.882812 5.875 -0.46875 C 5.34375 -0.0507812 4.613281 0.15625 3.6875 0.15625 Z M 3.6875 0.15625 "/></g></g></g><g fill="#b4b4b4" fill-opacity="1"><g transform="translate(106.327231, 62.882531)"><g><path d="M 0.9375 0 L 0.9375 -7.859375 L 2.453125 -7.859375 L 5.25 -3.78125 L 8.03125 -7.859375 L 9.53125 -7.859375 L 9.53125 0 L 7.765625 0 L 7.765625 -4.71875 L 5.859375 -1.9375 L 4.625 -1.9375 L 2.71875 -4.734375 L 2.71875 0 Z M 0.9375 0 "/></g></g></g><g fill="#b4b4b4" fill-opacity="1"><g transform="translate(116.790884, 62.882531)"><g><path d="M 0.09375 0 L 3.21875 -7.859375 L 4.96875 -7.859375 L 8.09375 0 L 6.1875 0 L 5.65625 -1.359375 L 2.53125 -1.359375 L 2.015625 0 Z M 3 -2.765625 L 5.203125 -2.765625 L 4.09375 -5.625 Z M 3 -2.765625 "/></g></g></g><g fill="#b4b4b4" fill-opacity="1"><g transform="translate(124.969106, 62.882531)"><g><path d="M 0.9375 0 L 0.9375 -7.859375 L 4.296875 -7.859375 C 4.890625 -7.859375 5.40625 -7.75 5.84375 -7.53125 C 6.289062 -7.3125 6.632812 -7 6.875 -6.59375 C 7.113281 -6.1875 7.234375 -5.707031 7.234375 -5.15625 C 7.234375 -4.570312 7.101562 -4.070312 6.84375 -3.65625 C 6.582031 -3.25 6.21875 -2.9375 5.75 -2.71875 L 7.375 0 L 5.3125 0 L 3.90625 -2.453125 L 2.71875 -2.453125 L 2.71875 0 Z M 2.703125 -3.953125 L 4.0625 -3.953125 C 4.5 -3.953125 4.835938 -4.050781 5.078125 -4.25 C 5.316406 -4.457031 5.4375 -4.753906 5.4375 -5.140625 C 5.4375 -5.515625 5.316406 -5.804688 5.078125 -6.015625 C 4.835938 -6.222656 4.5 -6.328125 4.0625 -6.328125 L 2.703125 -6.328125 Z M 2.703125 -3.953125 "/></g></g></g><g fill="#b4b4b4" fill-opacity="1"><g transform="translate(132.542107, 62.882531)"><g><path d="M 2.828125 0 L 2.828125 -6.1875 L 0.34375 -6.1875 L 0.34375 -7.859375 L 7.09375 -7.859375 L 7.09375 -6.1875 L 4.609375 -6.1875 L 4.609375 0 Z M 2.828125 0 "/></g></g></g><g fill="#b4b4b4" fill-opacity="1"><g transform="translate(139.409111, 62.882531)"><g/></g></g><g fill="#b4b4b4" fill-opacity="1"><g transform="translate(141.795147, 62.882531)"><g><path d="M 0.09375 0 L 3.21875 -7.859375 L 4.96875 -7.859375 L 8.09375 0 L 6.1875 0 L 5.65625 -1.359375 L 2.53125 -1.359375 L 2.015625 0 Z M 3 -2.765625 L 5.203125 -2.765625 L 4.09375 -5.625 Z M 3 -2.765625 "/></g></g></g><g fill="#b4b4b4" fill-opacity="1"><g transform="translate(149.592143, 62.882531)"><g><path d="M 4.15625 0.15625 C 3.46875 0.15625 2.878906 0.0195312 2.390625 -0.25 C 1.898438 -0.519531 1.519531 -0.90625 1.25 -1.40625 C 0.988281 -1.914062 0.859375 -2.523438 0.859375 -3.234375 L 0.859375 -7.859375 L 2.640625 -7.859375 L 2.640625 -3.359375 C 2.640625 -2.140625 3.144531 -1.53125 4.15625 -1.53125 C 5.15625 -1.53125 5.65625 -2.140625 5.65625 -3.359375 L 5.65625 -7.859375 L 7.4375 -7.859375 L 7.4375 -3.234375 C 7.4375 -2.523438 7.300781 -1.914062 7.03125 -1.40625 C 6.769531 -0.90625 6.394531 -0.519531 5.90625 -0.25 C 5.414062 0.0195312 4.832031 0.15625 4.15625 0.15625 Z M 4.15625 0.15625 "/></g></g></g><g fill="#b4b4b4" fill-opacity="1"><g transform="translate(157.882403, 62.882531)"><g><path d="M 2.828125 0 L 2.828125 -6.1875 L 0.34375 -6.1875 L 0.34375 -7.859375 L 7.09375 -7.859375 L 7.09375 -6.1875 L 4.609375 -6.1875 L 4.609375 0 Z M 2.828125 0 "/></g></g></g><g fill="#b4b4b4" fill-opacity="1"><g transform="translate(164.87274, 62.882531)"><g><path d="M 4.671875 0.15625 C 3.847656 0.15625 3.117188 -0.015625 2.484375 -0.359375 C 1.859375 -0.710938 1.367188 -1.191406 1.015625 -1.796875 C 0.660156 -2.410156 0.484375 -3.117188 0.484375 -3.921875 C 0.484375 -4.722656 0.660156 -5.429688 1.015625 -6.046875 C 1.367188 -6.660156 1.859375 -7.140625 2.484375 -7.484375 C 3.117188 -7.835938 3.847656 -8.015625 4.671875 -8.015625 C 5.492188 -8.015625 6.21875 -7.835938 6.84375 -7.484375 C 7.46875 -7.140625 7.957031 -6.660156 8.3125 -6.046875 C 8.675781 -5.429688 8.859375 -4.722656 8.859375 -3.921875 C 8.859375 -3.117188 8.675781 -2.410156 8.3125 -1.796875 C 7.957031 -1.191406 7.46875 -0.710938 6.84375 -0.359375 C 6.21875 -0.015625 5.492188 0.15625 4.671875 0.15625 Z M 2.296875 -3.921875 C 2.296875 -3.453125 2.394531 -3.035156 2.59375 -2.671875 C 2.800781 -2.316406 3.082031 -2.035156 3.4375 -1.828125 C 3.789062 -1.628906 4.203125 -1.53125 4.671875 -1.53125 C 5.140625 -1.53125 5.550781 -1.628906 5.90625 -1.828125 C 6.257812 -2.035156 6.535156 -2.316406 6.734375 -2.671875 C 6.929688 -3.035156 7.03125 -3.453125 7.03125 -3.921875 C 7.03125 -4.398438 6.929688 -4.816406 6.734375 -5.171875 C 6.535156 -5.523438 6.257812 -5.800781 5.90625 -6 C 5.550781 -6.207031 5.140625 -6.3125 4.671875 -6.3125 C 4.203125 -6.3125 3.789062 -6.207031 3.4375 -6 C 3.082031 -5.800781 2.800781 -5.523438 2.59375 -5.171875 C 2.394531 -4.816406 2.296875 -4.398438 2.296875 -3.921875 Z M 2.296875 -3.921875 "/></g></g></g><g fill="#b4b4b4" fill-opacity="1"><g transform="translate(174.204881, 62.882531)"><g><path d="M 0.9375 0 L 0.9375 -7.859375 L 2.453125 -7.859375 L 5.25 -3.78125 L 8.03125 -7.859375 L 9.53125 -7.859375 L 9.53125 0 L 7.765625 0 L 7.765625 -4.71875 L 5.859375 -1.9375 L 4.625 -1.9375 L 2.71875 -4.734375 L 2.71875 0 Z M 0.9375 0 "/></g></g></g><g fill="#b4b4b4" fill-opacity="1"><g transform="translate(184.668533, 62.882531)"><g><path d="M 0.09375 0 L 3.21875 -7.859375 L 4.96875 -7.859375 L 8.09375 0 L 6.1875 0 L 5.65625 -1.359375 L 2.53125 -1.359375 L 2.015625 0 Z M 3 -2.765625 L 5.203125 -2.765625 L 4.09375 -5.625 Z M 3 -2.765625 "/></g></g></g><g fill="#b4b4b4" fill-opacity="1"><g transform="translate(191.994606, 62.882531)"><g><path d="M 2.828125 0 L 2.828125 -6.1875 L 0.34375 -6.1875 L 0.34375 -7.859375 L 7.09375 -7.859375 L 7.09375 -6.1875 L 4.609375 -6.1875 L 4.609375 0 Z M 2.828125 0 "/></g></g></g><g fill="#b4b4b4" fill-opacity="1"><g transform="translate(199.422232, 62.882531)"><g><path d="M 0.9375 0 L 0.9375 -7.859375 L 2.71875 -7.859375 L 2.71875 0 Z M 0.9375 0 "/></g></g></g><g fill="#b4b4b4" fill-opacity="1"><g transform="translate(203.085635, 62.882531)"><g><path d="M 4.671875 0.15625 C 3.847656 0.15625 3.117188 -0.015625 2.484375 -0.359375 C 1.859375 -0.710938 1.367188 -1.191406 1.015625 -1.796875 C 0.660156 -2.410156 0.484375 -3.117188 0.484375 -3.921875 C 0.484375 -4.722656 0.660156 -5.429688 1.015625 -6.046875 C 1.367188 -6.660156 1.859375 -7.140625 2.484375 -7.484375 C 3.117188 -7.835938 3.847656 -8.015625 4.671875 -8.015625 C 5.492188 -8.015625 6.21875 -7.835938 6.84375 -7.484375 C 7.46875 -7.140625 7.957031 -6.660156 8.3125 -6.046875 C 8.675781 -5.429688 8.859375 -4.722656 8.859375 -3.921875 C 8.859375 -3.117188 8.675781 -2.410156 8.3125 -1.796875 C 7.957031 -1.191406 7.46875 -0.710938 6.84375 -0.359375 C 6.21875 -0.015625 5.492188 0.15625 4.671875 0.15625 Z M 2.296875 -3.921875 C 2.296875 -3.453125 2.394531 -3.035156 2.59375 -2.671875 C 2.800781 -2.316406 3.082031 -2.035156 3.4375 -1.828125 C 3.789062 -1.628906 4.203125 -1.53125 4.671875 -1.53125 C 5.140625 -1.53125 5.550781 -1.628906 5.90625 -1.828125 C 6.257812 -2.035156 6.535156 -2.316406 6.734375 -2.671875 C 6.929688 -3.035156 7.03125 -3.453125 7.03125 -3.921875 C 7.03125 -4.398438 6.929688 -4.816406 6.734375 -5.171875 C 6.535156 -5.523438 6.257812 -5.800781 5.90625 -6 C 5.550781 -6.207031 5.140625 -6.3125 4.671875 -6.3125 C 4.203125 -6.3125 3.789062 -6.207031 3.4375 -6 C 3.082031 -5.800781 2.800781 -5.523438 2.59375 -5.171875 C 2.394531 -4.816406 2.296875 -4.398438 2.296875 -3.921875 Z M 2.296875 -3.921875 "/></g></g></g><g fill="#b4b4b4" fill-opacity="1"><g transform="translate(212.417776, 62.882531)"><g><path d="M 0.9375 0 L 0.9375 -7.859375 L 2.453125 -7.859375 L 5.921875 -3.078125 L 5.921875 -7.859375 L 7.703125 -7.859375 L 7.703125 0 L 6.1875 0 L 2.71875 -4.8125 L 2.71875 0 Z M 0.9375 0 "/></g></g></g><g fill="#b4b4b4" fill-opacity="1"><g transform="translate(221.044125, 62.882531)"><g><path d="M 1.5 0.125 C 1.195312 0.125 0.945312 0.03125 0.75 -0.15625 C 0.550781 -0.351562 0.453125 -0.597656 0.453125 -0.890625 C 0.453125 -1.179688 0.550781 -1.421875 0.75 -1.609375 C 0.945312 -1.804688 1.195312 -1.90625 1.5 -1.90625 C 1.8125 -1.90625 2.0625 -1.804688 2.25 -1.609375 C 2.445312 -1.421875 2.546875 -1.179688 2.546875 -0.890625 C 2.546875 -0.597656 2.445312 -0.351562 2.25 -0.15625 C 2.0625 0.03125 1.8125 0.125 1.5 0.125 Z M 1.5 0.125 "/></g></g></g><g fill="#b4b4b4" fill-opacity="1"><g transform="translate(224.035336, 62.882531)"><g/></g></g><g fill="#b4b4b4" fill-opacity="1"><g transform="translate(226.668049, 62.882531)"><g><path d="M 0.9375 0 L 0.9375 -7.859375 L 4.296875 -7.859375 C 4.890625 -7.859375 5.40625 -7.75 5.84375 -7.53125 C 6.289062 -7.3125 6.632812 -7 6.875 -6.59375 C 7.113281 -6.1875 7.234375 -5.707031 7.234375 -5.15625 C 7.234375 -4.570312 7.101562 -4.070312 6.84375 -3.65625 C 6.582031 -3.25 6.21875 -2.9375 5.75 -2.71875 L 7.375 0 L 5.3125 0 L 3.90625 -2.453125 L 2.71875 -2.453125 L 2.71875 0 Z M 2.703125 -3.953125 L 4.0625 -3.953125 C 4.5 -3.953125 4.835938 -4.050781 5.078125 -4.25 C 5.316406 -4.457031 5.4375 -4.753906 5.4375 -5.140625 C 5.4375 -5.515625 5.316406 -5.804688 5.078125 -6.015625 C 4.835938 -6.222656 4.5 -6.328125 4.0625 -6.328125 L 2.703125 -6.328125 Z M 2.703125 -3.953125 "/></g></g></g><g fill="#b4b4b4" fill-opacity="1"><g transform="translate(234.554996, 62.882531)"><g><path d="M 0.9375 0 L 0.9375 -7.859375 L 6.109375 -7.859375 L 6.109375 -6.34375 L 2.71875 -6.34375 L 2.71875 -4.71875 L 5.796875 -4.71875 L 5.796875 -3.234375 L 2.71875 -3.234375 L 2.71875 -1.515625 L 6.21875 -1.515625 L 6.21875 0 Z M 0.9375 0 "/></g></g></g><g fill="#b4b4b4" fill-opacity="1"><g transform="translate(241.344043, 62.882531)"><g><path d="M 0.9375 0 L 0.9375 -7.859375 L 2.71875 -7.859375 L 2.71875 -1.671875 L 6.15625 -1.671875 L 6.15625 0 Z M 0.9375 0 "/></g></g></g><g fill="#b4b4b4" fill-opacity="1"><g transform="translate(247.797, 62.882531)"><g><path d="M 0.9375 0 L 0.9375 -7.859375 L 2.71875 -7.859375 L 2.71875 0 Z M 0.9375 0 "/></g></g></g><g fill="#b4b4b4" fill-opacity="1"><g transform="translate(251.460402, 62.882531)"><g><path d="M 0.09375 0 L 3.21875 -7.859375 L 4.96875 -7.859375 L 8.09375 0 L 6.1875 0 L 5.65625 -1.359375 L 2.53125 -1.359375 L 2.015625 0 Z M 3 -2.765625 L 5.203125 -2.765625 L 4.09375 -5.625 Z M 3 -2.765625 "/></g></g></g><g fill="#b4b4b4" fill-opacity="1"><g transform="translate(259.638624, 62.882531)"><g><path d="M 0.9375 0 L 0.9375 -7.859375 L 4.453125 -7.859375 C 5.253906 -7.859375 5.890625 -7.664062 6.359375 -7.28125 C 6.828125 -6.894531 7.0625 -6.382812 7.0625 -5.75 C 7.0625 -5.375 6.976562 -5.035156 6.8125 -4.734375 C 6.65625 -4.441406 6.425781 -4.207031 6.125 -4.03125 C 6.5 -3.875 6.785156 -3.632812 6.984375 -3.3125 C 7.191406 -2.988281 7.296875 -2.617188 7.296875 -2.203125 C 7.296875 -1.753906 7.179688 -1.363281 6.953125 -1.03125 C 6.734375 -0.707031 6.425781 -0.453125 6.03125 -0.265625 C 5.632812 -0.0859375 5.171875 0 4.640625 0 Z M 2.703125 -1.40625 L 4.359375 -1.40625 C 4.710938 -1.40625 4.984375 -1.488281 5.171875 -1.65625 C 5.367188 -1.820312 5.46875 -2.054688 5.46875 -2.359375 C 5.46875 -2.660156 5.367188 -2.890625 5.171875 -3.046875 C 4.984375 -3.210938 4.710938 -3.296875 4.359375 -3.296875 L 2.703125 -3.296875 Z M 2.703125 -4.65625 L 4.1875 -4.65625 C 4.53125 -4.65625 4.789062 -4.734375 4.96875 -4.890625 C 5.15625 -5.046875 5.25 -5.265625 5.25 -5.546875 C 5.25 -5.835938 5.15625 -6.054688 4.96875 -6.203125 C 4.789062 -6.359375 4.53125 -6.4375 4.1875 -6.4375 L 2.703125 -6.4375 Z M 2.703125 -4.65625 "/></g></g></g><g fill="#b4b4b4" fill-opacity="1"><g transform="translate(267.357526, 62.882531)"><g><path d="M 0.9375 0 L 0.9375 -7.859375 L 2.71875 -7.859375 L 2.71875 -1.671875 L 6.15625 -1.671875 L 6.15625 0 Z M 0.9375 0 "/></g></g></g><g fill="#b4b4b4" fill-opacity="1"><g transform="translate(273.810482, 62.882531)"><g><path d="M 0.9375 0 L 0.9375 -7.859375 L 6.109375 -7.859375 L 6.109375 -6.34375 L 2.71875 -6.34375 L 2.71875 -4.71875 L 5.796875 -4.71875 L 5.796875 -3.234375 L 2.71875 -3.234375 L 2.71875 -1.515625 L 6.21875 -1.515625 L 6.21875 0 Z M 0.9375 0 "/></g></g></g><g fill="#b4b4b4" fill-opacity="1"><g transform="translate(280.599529, 62.882531)"><g/></g></g><g fill="#b4b4b4" fill-opacity="1"><g transform="translate(283.052845, 62.882531)"><g><path d="M 3.6875 0.15625 C 3.019531 0.15625 2.445312 0.046875 1.96875 -0.171875 C 1.5 -0.390625 1.132812 -0.695312 0.875 -1.09375 C 0.625 -1.488281 0.5 -1.957031 0.5 -2.5 L 2.25 -2.5 C 2.25 -2.125 2.375 -1.832031 2.625 -1.625 C 2.882812 -1.414062 3.234375 -1.3125 3.671875 -1.3125 C 4.046875 -1.3125 4.335938 -1.382812 4.546875 -1.53125 C 4.765625 -1.675781 4.875 -1.878906 4.875 -2.140625 C 4.875 -2.421875 4.742188 -2.644531 4.484375 -2.8125 C 4.222656 -2.988281 3.816406 -3.132812 3.265625 -3.25 C 2.347656 -3.445312 1.664062 -3.742188 1.21875 -4.140625 C 0.78125 -4.535156 0.5625 -5.050781 0.5625 -5.6875 C 0.5625 -6.40625 0.820312 -6.972656 1.34375 -7.390625 C 1.863281 -7.804688 2.578125 -8.015625 3.484375 -8.015625 C 4.109375 -8.015625 4.644531 -7.90625 5.09375 -7.6875 C 5.550781 -7.476562 5.90625 -7.179688 6.15625 -6.796875 C 6.414062 -6.410156 6.546875 -5.953125 6.546875 -5.421875 L 4.828125 -5.421875 C 4.828125 -5.773438 4.707031 -6.050781 4.46875 -6.25 C 4.238281 -6.445312 3.921875 -6.546875 3.515625 -6.546875 C 3.140625 -6.546875 2.84375 -6.472656 2.625 -6.328125 C 2.40625 -6.179688 2.296875 -5.976562 2.296875 -5.71875 C 2.296875 -5.476562 2.414062 -5.273438 2.65625 -5.109375 C 2.894531 -4.953125 3.316406 -4.800781 3.921875 -4.65625 C 4.898438 -4.425781 5.601562 -4.113281 6.03125 -3.71875 C 6.46875 -3.332031 6.6875 -2.828125 6.6875 -2.203125 C 6.6875 -1.460938 6.414062 -0.882812 5.875 -0.46875 C 5.34375 -0.0507812 4.613281 0.15625 3.6875 0.15625 Z M 3.6875 0.15625 "/></g></g></g><g fill="#b4b4b4" fill-opacity="1"><g transform="translate(290.234, 62.882531)"><g><path d="M 4.671875 0.15625 C 3.847656 0.15625 3.117188 -0.015625 2.484375 -0.359375 C 1.859375 -0.710938 1.367188 -1.191406 1.015625 -1.796875 C 0.660156 -2.410156 0.484375 -3.117188 0.484375 -3.921875 C 0.484375 -4.722656 0.660156 -5.429688 1.015625 -6.046875 C 1.367188 -6.660156 1.859375 -7.140625 2.484375 -7.484375 C 3.117188 -7.835938 3.847656 -8.015625 4.671875 -8.015625 C 5.492188 -8.015625 6.21875 -7.835938 6.84375 -7.484375 C 7.46875 -7.140625 7.957031 -6.660156 8.3125 -6.046875 C 8.675781 -5.429688 8.859375 -4.722656 8.859375 -3.921875 C 8.859375 -3.117188 8.675781 -2.410156 8.3125 -1.796875 C 7.957031 -1.191406 7.46875 -0.710938 6.84375 -0.359375 C 6.21875 -0.015625 5.492188 0.15625 4.671875 0.15625 Z M 2.296875 -3.921875 C 2.296875 -3.453125 2.394531 -3.035156 2.59375 -2.671875 C 2.800781 -2.316406 3.082031 -2.035156 3.4375 -1.828125 C 3.789062 -1.628906 4.203125 -1.53125 4.671875 -1.53125 C 5.140625 -1.53125 5.550781 -1.628906 5.90625 -1.828125 C 6.257812 -2.035156 6.535156 -2.316406 6.734375 -2.671875 C 6.929688 -3.035156 7.03125 -3.453125 7.03125 -3.921875 C 7.03125 -4.398438 6.929688 -4.816406 6.734375 -5.171875 C 6.535156 -5.523438 6.257812 -5.800781 5.90625 -6 C 5.550781 -6.207031 5.140625 -6.3125 4.671875 -6.3125 C 4.203125 -6.3125 3.789062 -6.207031 3.4375 -6 C 3.082031 -5.800781 2.800781 -5.523438 2.59375 -5.171875 C 2.394531 -4.816406 2.296875 -4.398438 2.296875 -3.921875 Z M 2.296875 -3.921875 "/></g></g></g><g fill="#b4b4b4" fill-opacity="1"><g transform="translate(299.566141, 62.882531)"><g><path d="M 0.9375 0 L 0.9375 -7.859375 L 5.875 -7.859375 L 5.875 -6.234375 L 2.71875 -6.234375 L 2.71875 -4.28125 L 5.578125 -4.28125 L 5.578125 -2.703125 L 2.71875 -2.703125 L 2.71875 0 Z M 0.9375 0 "/></g></g></g><g fill="#b4b4b4" fill-opacity="1"><g transform="translate(305.918275, 62.882531)"><g><path d="M 2.828125 0 L 2.828125 -6.1875 L 0.34375 -6.1875 L 0.34375 -7.859375 L 7.09375 -7.859375 L 7.09375 -6.1875 L 4.609375 -6.1875 L 4.609375 0 Z M 2.828125 0 "/></g></g></g><g fill="#b4b4b4" fill-opacity="1"><g transform="translate(313.345902, 62.882531)"><g><path d="M 2.640625 0 L 0.109375 -7.859375 L 2.015625 -7.859375 L 2.765625 -5.46875 L 3.59375 -2.890625 L 4.484375 -5.46875 L 5.328125 -7.859375 L 7.015625 -7.859375 L 7.859375 -5.46875 L 8.765625 -2.84375 L 9.609375 -5.46875 L 10.359375 -7.859375 L 12.25 -7.859375 L 9.71875 0 L 7.96875 0 L 6.1875 -5.078125 L 4.390625 0 Z M 2.640625 0 "/></g></g></g><g fill="#b4b4b4" fill-opacity="1"><g transform="translate(324.985275, 62.882531)"><g><path d="M 0.09375 0 L 3.21875 -7.859375 L 4.96875 -7.859375 L 8.09375 0 L 6.1875 0 L 5.65625 -1.359375 L 2.53125 -1.359375 L 2.015625 0 Z M 3 -2.765625 L 5.203125 -2.765625 L 4.09375 -5.625 Z M 3 -2.765625 "/></g></g></g><g fill="#b4b4b4" fill-opacity="1"><g transform="translate(333.163497, 62.882531)"><g><path d="M 0.9375 0 L 0.9375 -7.859375 L 4.296875 -7.859375 C 4.890625 -7.859375 5.40625 -7.75 5.84375 -7.53125 C 6.289062 -7.3125 6.632812 -7 6.875 -6.59375 C 7.113281 -6.1875 7.234375 -5.707031 7.234375 -5.15625 C 7.234375 -4.570312 7.101562 -4.070312 6.84375 -3.65625 C 6.582031 -3.25 6.21875 -2.9375 5.75 -2.71875 L 7.375 0 L 5.3125 0 L 3.90625 -2.453125 L 2.71875 -2.453125 L 2.71875 0 Z M 2.703125 -3.953125 L 4.0625 -3.953125 C 4.5 -3.953125 4.835938 -4.050781 5.078125 -4.25 C 5.316406 -4.457031 5.4375 -4.753906 5.4375 -5.140625 C 5.4375 -5.515625 5.316406 -5.804688 5.078125 -6.015625 C 4.835938 -6.222656 4.5 -6.328125 4.0625 -6.328125 L 2.703125 -6.328125 Z M 2.703125 -3.953125 "/></g></g></g><g fill="#b4b4b4" fill-opacity="1"><g transform="translate(341.050444, 62.882531)"><g><path d="M 0.9375 0 L 0.9375 -7.859375 L 6.109375 -7.859375 L 6.109375 -6.34375 L 2.71875 -6.34375 L 2.71875 -4.71875 L 5.796875 -4.71875 L 5.796875 -3.234375 L 2.71875 -3.234375 L 2.71875 -1.515625 L 6.21875 -1.515625 L 6.21875 0 Z M 0.9375 0 "/></g></g></g><g fill="#b4b4b4" fill-opacity="1"><g transform="translate(347.839491, 62.882531)"><g><path d="M 1.5 0.125 C 1.195312 0.125 0.945312 0.03125 0.75 -0.15625 C 0.550781 -0.351562 0.453125 -0.597656 0.453125 -0.890625 C 0.453125 -1.179688 0.550781 -1.421875 0.75 -1.609375 C 0.945312 -1.804688 1.195312 -1.90625 1.5 -1.90625 C 1.8125 -1.90625 2.0625 -1.804688 2.25 -1.609375 C 2.445312 -1.421875 2.546875 -1.179688 2.546875 -0.890625 C 2.546875 -0.597656 2.445312 -0.351562 2.25 -0.15625 C 2.0625 0.03125 1.8125 0.125 1.5 0.125 Z M 1.5 0.125 "/></g></g></g></svg>